# xmcd
#
# Track frame offsets: 
#        150
#        17449
#        41456
#        54683
#        77333
#        102099
#        118844
#        133229
#        148672
#        178157
#        193905
#        211674
#        241781
#        254281
#        285557
#        302872
#        320068
#        341356
#
# Disc length: 4790 seconds
#
# Revision: 0
# Processed by: cddbd v1.5.2PL0 Copyright (c) Steve Scherf et al.
# Submitted via: ExactAudioCopy v1.3
#
DISCID=0212b412
DTITLE=Various Artist - Blues - Golden Age '60s -'70s  vol.10  CD1
DYEAR=2018
DGENRE=Rock
TTITLE0=Stan Webb's Chicken Shack - 1978 - The End
TTITLE1=John Dummer's Famous Music Band - 1970 - No Change Now
TTITLE2=10Cc - 1977 - Good Morning Judge
TTITLE3=Peter Green - 1979 - I Could Not Ask For More
TTITLE4=Harry Muskee Band - 1977 - Mr. Cool
TTITLE5=Canned Heat - 1967 - Story Of My Life
TTITLE6=Johnny Winter - 1974 - Riot In Cell Block #9
TTITLE7=Downchild Blues Band - 1977 - Let's Go Strollin'
TTITLE8=Pacific Gas and Electric - 1968 - Cry, Cry, Cry
TTITLE9=Chain - 1971 - I'm Gonna Miss You Babe
TTITLE10=Humble Pie - 1974 - Drift Away
TTITLE11=Livin' Blues - 1973 - I'm Coming Home
TTITLE12=Christie - 1970 - Yellow River
TTITLE13=Roy Buchanan - 1971 - After HoursThe Messiah Will Come Again
TTITLE14=Janis Joplin - 1969 - Little Girl Blue
TTITLE15=Uriah Heep - 1970 - Come Away Melinda
TTITLE16=George Harrison - 1970 - My Sweet Lord
TTITLE17=Cuby and Blizzards - 1968 - Feel So Bad
EXTD=
EXTT0=
EXTT1=
EXTT2=
EXTT3=
EXTT4=
EXTT5=
EXTT6=
EXTT7=
EXTT8=
EXTT9=
EXTT10=
EXTT11=
EXTT12=
EXTT13=
EXTT14=
EXTT15=
EXTT16=
EXTT17=
PLAYORDER=
